<?xml version="1.0" standalone="no"?>
<!DOCTYPE svg PUBLIC "-//W3C//DTD SVG 1.1//EN" "http://www.w3.org/Graphics/SVG/1.1/DTD/svg11.dtd">
<svg width="100%" height="100%" viewBox="0 0 500 150" version="1.1" xmlns="http://www.w3.org/2000/svg" xmlns:xlink="http://www.w3.org/1999/xlink" xml:space="preserve" style="fill-rule:evenodd;clip-rule:evenodd;stroke-linejoin:round;stroke-miterlimit:1.41421;">
    <g id="CDS_Logo_Test" transform="matrix(1.25,0,0,-1.25,138.383,-324.466)">
        <g id="path3274" transform="matrix(1.16707,0,0,1.16707,67.305,100.88)">
            <path d="M142.579,-323.673C133.574,-323.673 126.392,-324.746 121.004,-326.873C114.977,-329.213 111.954,-334.923 111.954,-343.998C111.954,-353.924 115.684,-359.834 123.129,-361.748C126.532,-362.599 130.15,-363.277 133.979,-363.773C137.878,-364.269 142.008,-364.581 146.404,-364.723C147.68,-364.723 148.977,-364.777 150.254,-364.848C151.53,-364.848 152.748,-364.877 153.954,-364.948C158.988,-365.161 162.094,-365.839 163.229,-366.973C164.505,-368.178 165.128,-370.665 165.129,-374.423C165.128,-379.244 164.168,-382.185 162.254,-383.248C159.63,-384.453 155.106,-385.048 148.654,-385.048L140.679,-385.048C133.305,-385.048 128.838,-384.312 127.279,-382.823C125.648,-381.405 124.829,-377.221 124.829,-370.273L111.754,-370.273C111.754,-370.415 111.699,-370.785 111.629,-371.423L111.629,-372.823C111.558,-372.965 111.529,-373.106 111.529,-373.248L111.529,-373.573C111.458,-373.786 111.429,-374.098 111.429,-374.523L111.429,-375.573C111.429,-384.932 114.764,-390.696 121.429,-392.823C127.526,-394.667 134.933,-395.573 143.654,-395.573L147.679,-395.573C149.026,-395.573 150.381,-395.544 151.729,-395.473C153.005,-395.402 154.306,-395.319 155.654,-395.248C157.001,-395.248 158.356,-395.219 159.704,-395.148C168.141,-394.439 173.485,-391.952 175.754,-387.698C176.746,-385.713 177.507,-383.592 178.004,-381.323C178.5,-378.983 178.753,-376.438 178.754,-373.673C178.753,-363.889 175.277,-358.067 168.329,-356.223C165.351,-355.443 161.986,-354.819 158.229,-354.323C154.542,-353.827 150.641,-353.544 146.529,-353.473C144.756,-353.473 143.005,-353.473 141.304,-353.473C139.602,-353.473 137.822,-353.39 135.979,-353.248C131.157,-352.894 128.271,-352.074 127.279,-350.798C126.073,-349.309 125.454,-346.905 125.454,-343.573C125.454,-343.219 125.454,-342.794 125.454,-342.298C125.454,-341.731 125.508,-341.165 125.579,-340.598C125.72,-339.605 126.032,-338.703 126.529,-337.923C127.025,-337.072 127.761,-336.449 128.754,-336.023C129.604,-335.527 130.79,-335.161 132.279,-334.948C133.838,-334.735 135.423,-334.565 137.054,-334.423L138.129,-334.423C139.476,-334.352 140.694,-334.323 141.829,-334.323C143.034,-334.252 144.136,-334.223 145.129,-334.223L149.704,-334.223C155.588,-334.223 159.348,-334.93 160.979,-336.348C162.609,-337.624 163.599,-341.018 163.954,-346.548L177.154,-346.548L177.154,-343.573C177.153,-334.001 173.789,-328.262 167.054,-326.348L167.154,-326.348C161.34,-324.576 153.933,-323.673 144.929,-323.673L142.579,-323.673ZM-12.796,-323.798C-14.144,-323.798 -15.528,-323.827 -16.946,-323.898C-18.223,-323.969 -19.608,-324.081 -21.096,-324.223C-22.515,-324.294 -23.87,-324.381 -25.146,-324.523C-29.613,-324.949 -33.431,-325.851 -36.621,-327.198C-39.812,-328.545 -42.187,-330.354 -43.746,-332.623L-43.746,-332.498C-46.866,-336.681 -48.421,-342.25 -48.421,-349.198L-48.421,-363.873C-48.351,-371.105 -47.303,-377.917 -45.246,-384.298C-42.907,-391.176 -35.475,-394.964 -22.996,-395.673L-11.296,-395.573C-9.099,-395.573 -6.836,-395.544 -4.496,-395.473C-2.086,-395.473 0.206,-395.39 2.404,-395.248C9.281,-394.681 14.396,-392.785 17.729,-389.523C23.082,-384.23 22.757,-376.04 22.504,-368.448L22.279,-368.448L10.253,-368.448C10.253,-371.93 10.271,-374.47 10.271,-377.923C10.13,-380.405 8.001,-382.101 6.229,-383.023C4.527,-383.874 2.348,-384.41 -0.771,-384.623C-3.466,-384.836 -6.094,-384.977 -8.646,-385.048C-11.128,-385.048 -13.727,-385.048 -16.421,-385.048C-17.201,-385.048 -18.021,-385.048 -18.871,-385.048C-19.651,-384.977 -20.5,-384.894 -21.421,-384.823C-23.69,-384.681 -25.782,-384.369 -27.696,-383.873C-29.54,-383.377 -30.842,-382.558 -31.621,-381.423L-31.621,-381.548C-32.472,-380.343 -33.067,-378.817 -33.421,-376.973C-33.776,-375.059 -34.03,-373.054 -34.171,-370.998C-34.242,-369.793 -34.326,-368.633 -34.396,-367.498C-34.396,-366.364 -34.396,-365.262 -34.396,-364.198L-34.496,-360.698L-34.496,-348.673C-34.496,-344.135 -33.79,-340.771 -32.371,-338.573C-31.166,-336.517 -27.802,-335.357 -22.271,-335.073C-19.294,-334.931 -16.353,-334.819 -13.446,-334.748C-10.54,-334.677 -7.574,-334.648 -4.596,-334.648C1.501,-334.648 5.148,-335.496 6.354,-337.198C7.701,-339.325 9.728,-343.313 9.729,-349.198L22.354,-349.198C21.857,-338.067 19.962,-330.801 15.779,-327.823C13.793,-326.405 9.757,-325.557 5.929,-324.848C2.1,-324.139 -2.762,-323.798 -8.646,-323.798C-10.065,-323.798 -11.449,-323.798 -12.796,-323.798L-12.796,-323.798ZM30.604,-324.098L30.604,-329.273L94.404,-329.273C89.474,-325.84 81.786,-324.098 71.329,-324.098L30.604,-324.098ZM30.604,-333.223L30.604,-336.848L43.879,-336.848L43.879,-334.848L71.229,-334.848C76.159,-334.848 80.458,-335.519 84.129,-336.848L100.604,-336.848C99.982,-335.544 99.271,-334.333 98.479,-333.223L30.604,-333.223ZM30.604,-340.798L30.604,-344.423L43.879,-344.423L43.879,-340.798L30.604,-340.798ZM88.304,-340.798C88.803,-341.823 89.193,-343.036 89.479,-344.423L103.054,-344.423C102.8,-343.151 102.485,-341.952 102.129,-340.798L88.304,-340.798ZM30.604,-348.373L30.604,-351.998L43.879,-351.998L43.879,-348.373L30.604,-348.373ZM90.129,-348.373C90.275,-349.581 90.373,-350.79 90.429,-351.998L103.904,-351.998C103.849,-350.746 103.756,-349.542 103.629,-348.373L90.129,-348.373ZM30.604,-355.948L30.604,-359.573L43.879,-359.573L43.879,-355.948L30.604,-355.948ZM90.529,-355.948C90.548,-357.145 90.574,-358.361 90.579,-359.573L103.979,-359.573L103.979,-355.948L90.529,-355.948ZM30.604,-363.523L30.604,-367.148L43.879,-367.148L43.879,-363.523L30.604,-363.523ZM90.579,-363.523L90.579,-363.998C90.578,-364.92 90.549,-365.939 90.479,-367.073C90.479,-367.098 90.479,-367.123 90.479,-367.148L103.679,-367.148C103.801,-365.947 103.881,-364.737 103.929,-363.523L90.579,-363.523ZM30.604,-371.098L30.604,-374.723L43.879,-374.723L43.879,-371.098L30.604,-371.098ZM90.254,-371.098C90.122,-372.33 89.918,-373.543 89.604,-374.723L102.404,-374.723C102.503,-374.266 102.612,-373.814 102.704,-373.348C102.863,-372.604 102.999,-371.848 103.129,-371.098L90.254,-371.098ZM30.604,-378.673L30.604,-382.298L43.879,-382.298L43.879,-378.673L30.604,-378.673ZM88.079,-378.673C87.584,-379.554 86.999,-380.379 86.329,-381.123L86.429,-381.123C85.984,-381.567 85.479,-381.95 84.929,-382.298L100.279,-382.298C100.698,-381.125 101.075,-379.919 101.429,-378.673L88.079,-378.673ZM30.604,-386.248L30.604,-389.873L95.079,-389.873C96.429,-388.817 97.541,-387.61 98.429,-386.248L30.604,-386.248ZM30.604,-393.823L30.604,-395.248L73.779,-395.248C78.761,-395.248 83.031,-394.771 86.629,-393.823L30.604,-393.823Z" style="fill:rgb(63,60,128);fill-rule:nonzero;"/>
        </g>
        <g id="Layer 1" transform="matrix(0.303745,0,0,-0.303745,-101.907,-57.4302)">
            <g id="path3116" transform="matrix(1.3701,0,0,1.3701,36.562,671.99)">
                <path d="M134.651,109.813C134.651,147.826 103.835,178.643 65.821,178.643C27.807,178.643 -3.009,147.826 -3.009,109.813C-3.009,71.799 27.807,40.982 65.821,40.982C103.835,40.982 134.651,71.799 134.651,109.813Z" style="fill:rgb(43,46,104);fill-opacity:0.788136;fill-rule:nonzero;"/>
            </g>
            <g id="path3952" transform="matrix(1.3701,0,0,1.3701,131.354,672.486)">
                <path d="M134.651,109.813C134.651,147.826 103.835,178.643 65.821,178.643C27.807,178.643 -3.009,147.826 -3.009,109.813C-3.009,71.799 27.807,40.982 65.821,40.982C103.835,40.982 134.651,71.799 134.651,109.813Z" style="fill:rgb(43,46,104);fill-opacity:0.788136;fill-rule:nonzero;"/>
            </g>
            <g id="path3976" transform="matrix(1.3701,0,0,1.3701,83.1989,752.389)">
                <path d="M134.651,109.813C134.651,147.826 103.835,178.643 65.821,178.643C27.807,178.643 -3.009,147.826 -3.009,109.813C-3.009,71.799 27.807,40.982 65.821,40.982C103.835,40.982 134.651,71.799 134.651,109.813Z" style="fill:rgb(43,46,104);fill-opacity:0.788136;fill-rule:nonzero;"/>
            </g>
            <path id="path3990" d="M128.123,702.649C62.71,702.649 9.123,756.194 9.123,821.617C9.123,860.352 27.829,894.964 56.716,916.711C64.013,975.293 114.296,1021.02 174.748,1021.02C234.546,1021.02 284.372,976.277 292.498,918.586C322.418,896.94 341.904,861.67 341.904,822.117C341.904,756.694 288.317,703.149 222.904,703.149C206.357,703.149 190.512,706.636 176.091,712.805C161.388,706.317 145.135,702.649 128.123,702.649L128.123,702.649ZM127.529,713.836C144.723,713.836 160.918,718.109 175.373,725.305C189.612,718.396 205.498,714.336 222.31,714.336C281.679,714.336 330.123,762.743 330.123,822.117C330.123,859.688 310.651,892.736 281.373,912.024C276.295,966.751 230.148,1009.84 174.154,1009.84C117.622,1009.84 71.141,965.893 66.81,910.43C38.447,890.995 19.716,858.48 19.716,821.617C19.716,762.243 68.16,713.836 127.529,713.836L127.529,713.836Z" style="fill:rgb(43,46,104);fill-rule:nonzero;"/>
        </g>
    </g>
</svg>
